<svg width="1489" height="756" viewBox="0 0 1489 756" fill="none" xmlns="http://www.w3.org/2000/svg">
<path d="M227.874 196.755C265.15 174.149 308.507 163.573 352.029 166.469C371.493 167.764 386.22 184.561 384.922 203.985C383.625 223.41 366.793 238.108 347.329 236.813C318.315 234.883 289.41 241.933 264.56 257.003C239.709 272.073 220.123 294.429 208.474 321.019C196.826 347.609 193.683 377.137 199.473 405.576C205.263 434.014 219.705 459.978 240.828 479.922C261.951 499.867 288.726 512.821 317.499 517.017C346.272 521.214 375.643 516.448 401.602 503.37C427.56 490.292 448.843 469.54 462.546 443.944C476.249 418.349 481.704 389.156 478.168 360.352C475.795 341.028 489.568 323.444 508.931 321.076C528.294 318.708 545.914 332.455 548.287 351.778C553.592 394.985 545.408 438.772 524.853 477.165C504.299 515.559 472.374 546.688 433.436 566.305C394.498 585.922 350.443 593.072 307.284 586.777C264.124 580.482 223.961 561.049 192.276 531.133C160.592 501.216 138.929 462.272 130.244 419.614C121.559 376.956 126.274 332.662 143.747 292.778C161.219 252.893 190.598 219.36 227.874 196.755ZM811.423 196.755C848.699 174.15 892.055 163.573 935.577 166.469C955.041 167.764 969.769 184.561 968.472 203.985C967.174 223.41 950.343 238.108 930.879 236.813C901.864 234.883 872.958 241.933 848.107 257.003C823.257 272.073 803.672 294.429 792.024 321.019C780.375 347.609 777.231 377.137 783.021 405.576C788.811 434.014 803.254 459.978 824.377 479.922C845.5 499.867 872.275 512.821 901.048 517.017C929.821 521.214 959.191 516.448 985.15 503.37C1011.11 490.292 1032.39 469.54 1046.09 443.944C1059.8 418.349 1065.25 389.156 1061.72 360.352C1059.34 341.028 1073.12 323.444 1092.48 321.076C1111.84 318.708 1129.46 332.455 1131.84 351.778C1137.14 394.985 1128.96 438.772 1108.4 477.165C1087.85 515.559 1055.92 546.688 1016.99 566.305C978.048 585.922 933.993 593.071 890.833 586.777C847.673 580.482 807.51 561.049 775.825 531.133C763.915 519.887 753.421 507.365 744.5 493.85C725.621 522.449 699.972 546.185 669.626 562.835C630.027 584.563 584.505 593.088 539.707 587.169C520.368 584.614 506.766 566.899 509.326 547.599C511.886 528.3 529.64 514.726 548.978 517.281C578.844 521.226 609.192 515.542 635.591 501.057C661.99 486.572 683.058 464.045 695.72 436.765C708.383 409.485 711.977 378.879 705.977 349.417C699.977 319.954 684.695 293.177 662.367 272.995C640.038 252.812 611.83 240.28 581.86 237.228C551.889 234.177 521.726 240.767 495.773 256.034C469.821 271.301 449.438 294.448 437.6 322.095C425.762 349.741 423.088 380.44 429.97 409.71C434.426 428.663 422.643 447.633 403.651 452.08C384.659 456.528 365.65 444.768 361.194 425.815C350.871 381.911 354.881 335.862 372.637 294.392C390.394 252.923 420.969 218.202 459.898 195.3C498.827 172.399 544.072 162.517 589.028 167.093C633.983 171.67 676.297 190.467 709.79 220.741C723.1 232.771 734.738 246.365 744.498 261.151C761.674 235.131 784.487 213.089 811.423 196.755ZM1043.45 195.3C1082.38 172.399 1127.62 162.517 1172.58 167.093C1217.53 171.67 1259.85 190.467 1293.34 220.741C1326.83 251.015 1349.75 291.182 1358.75 335.375C1367.75 379.569 1362.36 425.477 1343.37 466.397C1324.38 507.317 1292.77 541.108 1253.18 562.835C1213.58 584.563 1168.05 593.088 1123.26 587.169C1103.92 584.614 1090.32 566.899 1092.88 547.599C1095.44 528.3 1113.19 514.726 1132.53 517.281C1162.39 521.226 1192.74 515.541 1219.14 501.057C1245.54 486.572 1266.61 464.045 1279.27 436.765C1291.93 409.485 1295.53 378.879 1289.52 349.417C1283.52 319.954 1268.24 293.177 1245.92 272.995C1223.59 252.812 1195.38 240.279 1165.41 237.228C1135.44 234.177 1105.27 240.767 1079.32 256.034C1053.37 271.302 1032.99 294.448 1021.15 322.095C1009.31 349.741 1006.64 380.44 1013.52 409.71C1017.98 428.663 1006.19 447.633 987.2 452.08C968.208 456.528 949.2 444.768 944.743 425.815C934.42 381.91 938.43 335.862 956.187 294.392C973.944 252.923 1004.52 218.201 1043.45 195.3Z" fill="black"/>
</svg>
